<?xml version="1.0" encoding="UTF-8"?>
<svg width="497px" height="487px" viewBox="0 0 497 487" version="1.1" xmlns="http://www.w3.org/2000/svg" xmlns:xlink="http://www.w3.org/1999/xlink">
    <!-- Generator: Sketch 52.2 (67145) - http://www.bohemiancoding.com/sketch -->
    <title>workspace</title>
    <desc>Created with Sketch.</desc>
    <defs>
        <path d="M84.411,323.574526 L84.411,104.896474 C84.411,101.900527 86.7653421,99.471 89.6685751,99.471 L405.742425,99.471 C408.645658,99.471 411,101.900527 411,104.896474 L411,323.574526 C411,326.570473 408.645658,329 405.742425,329 L89.6685751,329 C86.7653421,329 84.411,326.570473 84.411,323.574526 Z" id="path-1"></path>
    </defs>
    <g id="Page-1" stroke="none" stroke-width="1" fill="none" fill-rule="evenodd">
        <g id="workspace">
            <path d="M34.5559076,366.908738 C12.6118008,330.658294 0,288.354874 0,243.159318 C0,108.916174 111.141131,0.090782762 248.240889,0.090782762 C385.340648,0.090782762 496.481779,108.916174 496.481779,243.159318 C496.481779,288.354874 483.869978,330.658294 461.925871,366.908738 L34.5559076,366.908738 Z" id="Path" fill="#FFF2DC"></path>
            <path d="M465.449728,360.89564 C423.105263,435.633518 341.713281,486.227854 248.240889,486.227854 C154.768498,486.227854 73.376516,435.633518 31.0320506,360.89564 L465.449728,360.89564 Z" id="Path" fill="#BD8B5F"></path>
            <polygon id="Path" fill="#9FACBA" points="288.552 421 206.67 421 206.67 328.647 288.552 328.647"></polygon>
            <path d="M223.118,372.647 L223.118,421 L206.67,421 L206.67,328.647 L288.552,328.647 L288.552,362.647 L233.117,362.647 C227.595,362.647 223.118,367.124 223.118,372.647 Z" id="Path" fill="#8D9CA8"></path>
            <path d="M326.811,412 L326.811,426 C326.811,428.761 324.572,431 321.811,431 L173.411,431 C170.65,431 168.411,428.761 168.411,426 L168.411,412 C168.411,409.239 170.65,407 173.411,407 L321.811,407 C324.572,407 326.811,409.239 326.811,412 Z M420.222,83 L253.611,83 L241.611,83 L75,83 C69.477,83 65,87.477 65,93 L65,339.118 C65,344.641 69.477,349.118 75,349.118 L420.222,349.118 C425.745,349.118 430.222,344.641 430.222,339.118 L430.222,93 C430.222,87.477 425.745,83 420.222,83 Z" id="Shape" fill="#B6C4CF" fill-rule="nonzero"></path>
            <path d="M235,95 C232.7944,95 231,93.2056 231,91 C231,88.7944 232.7944,87 235,87 C237.2056,87 239,88.7944 239,91 C239,93.2056 237.2056,95 235,95 Z" id="Path" fill="#4A4A4A"></path>
            <path d="M84.411,323.574526 L84.411,104.896474 C84.411,101.900527 86.65,99.471 89.411,99.471 L405.955,99.471 C408.716,99.471 410.955,101.900527 410.955,104.896474 L410.955,323.574526 C410.955,326.570473 408.716,329 405.955,329 L89.411,329 C86.65,329 84.411,326.570473 84.411,323.574526 Z" id="Path" fill="#FFE7BF"></path>
            <mask id="mask-2" fill="white">
                <use xlink:href="#path-1"></use>
            </mask>
            <use id="Path" fill="#FFF5F5" xlink:href="#path-1"></use>
            <rect id="Rectangle" fill="#D8D8D8" fill-rule="nonzero" mask="url(#mask-2)" x="84" y="99" width="327" height="16"></rect>
            <path d="M97,112 C94.243,112 92,109.757 92,107 C92,104.243 94.243,102 97,102 C99.757,102 102,104.243 102,107 C102,109.757 99.757,112 97,112 Z" id="Path" fill="#D9340B" mask="url(#mask-2)"></path>
            <path d="M112,112 C109.243,112 107,109.757 107,107 C107,104.243 109.243,102 112,102 C114.757,102 117,104.243 117,107 C117,109.757 114.757,112 112,112 Z" id="Path-Copy-3" fill="#F8E71C" mask="url(#mask-2)"></path>
            <path d="M127,112 C124.243,112 122,109.757 122,107 C122,104.243 124.243,102 127,102 C129.757,102 132,104.243 132,107 C132,109.757 129.757,112 127,112 Z" id="Path-Copy-4" fill="#08D300" mask="url(#mask-2)"></path>
            <g id="boards" mask="url(#mask-2)">
                <g transform="translate(107.000000, 125.000000)">
                    <polygon id="Path" fill="#FFEC97" points="82.5 90 0 90 0 0 82.5 0"></polygon>
                    <path d="M69.84375,86.25 C65.9667187,86.25 62.8125,83.0957813 62.8125,79.21875 C62.8125,75.3417187 65.9667187,72.1875 69.84375,72.1875 C73.7207813,72.1875 76.875,75.3417187 76.875,79.21875 C76.875,83.0957813 73.7207813,86.25 69.84375,86.25 Z" id="Path" fill="#FF3C62"></path>
                    <g id="Group" stroke-width="1" fill="none" transform="translate(11.250000, 7.500000)">
                        <rect id="Rectangle" fill="#FF8900" x="0" y="23.4375" width="61.4375" height="14.0625"></rect>
                        <rect id="Rectangle" fill="#FF8900" x="0" y="46.875" width="30.25" height="14.0625"></rect>
                        <rect id="Rectangle-Copy" fill="#FF8900" x="0" y="0" width="46.25" height="14.0625"></rect>
                    </g>
                </g>
            </g>
            <g id="boards-copy" mask="url(#mask-2)">
                <g transform="translate(208.000000, 125.000000)">
                    <polygon id="Path" fill="#FFEC97" points="82.5 90 0 90 0 0 82.5 0"></polygon>
                    <path d="M69.84375,86.25 C65.9667187,86.25 62.8125,83.0957813 62.8125,79.21875 C62.8125,75.3417187 65.9667187,72.1875 69.84375,72.1875 C73.7207813,72.1875 76.875,75.3417187 76.875,79.21875 C76.875,83.0957813 73.7207813,86.25 69.84375,86.25 Z" id="Path" fill="#F5A623"></path>
                    <g id="Group" stroke-width="1" fill="none" transform="translate(11.250000, 7.500000)">
                        <rect id="Rectangle" fill="#FF8900" x="0" y="23.4375" width="42.4375" height="38"></rect>
                        <polygon id="Rectangle-Copy-2" fill="#EFEFEF" fill-rule="nonzero" points="12.7073847 46.1494142 19.1284485 57.5301208 5.72280594 57.5666854"></polygon>
                        <polygon id="Rectangle" fill="#FFFFFF" fill-rule="nonzero" points="21.1382565 38.9874478 31.9962457 57.4963672 10.2985642 57.5557968"></polygon>
                        <polygon id="Rectangle-Copy-3" fill="#EFEFEF" fill-rule="nonzero" points="29.5691282 42.568431 38.3854108 57.4957221 20.5699158 57.5365753"></polygon>
                        <circle id="Oval" fill="#FFFFFF" fill-rule="nonzero" cx="8" cy="31" r="4"></circle>
                        <rect id="Rectangle-Copy" fill="#FF8900" x="0" y="0" width="60.25" height="14.0625"></rect>
                    </g>
                </g>
            </g>
            <g id="boards-copy-2" mask="url(#mask-2)">
                <g transform="translate(308.000000, 125.000000)">
                    <polygon id="Path" fill="#FFEC97" points="82.5 90 0 90 0 0 82.5 0"></polygon>
                    <path d="M70.03125,86.25 C66.1542187,86.25 63,83.0957813 63,79.21875 C63,75.3417187 66.1542187,72.1875 70.03125,72.1875 C73.9082812,72.1875 77.0625,75.3417187 77.0625,79.21875 C77.0625,83.0957813 73.9082812,86.25 70.03125,86.25 Z" id="Path" fill="#F5A623"></path>
                    <path d="M52.03125,86.0625 C48.1542187,86.0625 45,82.9082813 45,79.03125 C45,75.1542187 48.1542187,72 52.03125,72 C55.9082812,72 59.0625,75.1542187 59.0625,79.03125 C59.0625,82.9082813 55.9082812,86.0625 52.03125,86.0625 Z" id="Path-Copy" fill="#4A4A4A"></path>
                    <path d="M34.03125,86.0625 C30.1542187,86.0625 27,82.9082813 27,79.03125 C27,75.1542187 30.1542187,72 34.03125,72 C37.9082812,72 41.0625,75.1542187 41.0625,79.03125 C41.0625,82.9082813 37.9082812,86.0625 34.03125,86.0625 Z" id="Path-Copy-2" fill="#BD10E0"></path>
                    <g id="Group" stroke-width="1" fill="none" transform="translate(11.250000, 7.500000)">
                        <rect id="Rectangle" fill="#FF8900" x="0" y="23.4375" width="63.4375" height="14.0625"></rect>
                        <rect id="Rectangle-Copy" fill="#FF8900" x="0" y="-8.8817842e-16" width="63.25" height="14.0625"></rect>
                    </g>
                </g>
            </g>
            <g id="boards-copy-5" mask="url(#mask-2)">
                <g transform="translate(107.000000, 228.000000)">
                    <polygon id="Path" fill="#FFEC97" points="82.5 90 0 90 0 0 82.5 0"></polygon>
                    <path d="M69.84375,86.25 C65.9667187,86.25 62.8125,83.0957813 62.8125,79.21875 C62.8125,75.3417187 65.9667187,72.1875 69.84375,72.1875 C73.7207813,72.1875 76.875,75.3417187 76.875,79.21875 C76.875,83.0957813 73.7207813,86.25 69.84375,86.25 Z" id="Path" fill="#08D300"></path>
                    <g id="Group" stroke-width="1" fill="none" transform="translate(11.250000, 7.500000)">
                        <rect id="Rectangle" fill="#FF8900" x="0" y="23.4375" width="58.4375" height="14.0625"></rect>
                        <rect id="Rectangle-Copy" fill="#FF8900" x="0" y="0" width="58.25" height="14.0625"></rect>
                    </g>
                </g>
            </g>
            <g id="boards-copy-4" mask="url(#mask-2)">
                <g transform="translate(208.000000, 228.000000)">
                    <polygon id="Path" fill="#FFEC97" points="82.5 90 0 90 0 0 82.5 0"></polygon>
                    <path d="M69.84375,86.25 C65.9667187,86.25 62.8125,83.0957813 62.8125,79.21875 C62.8125,75.3417187 65.9667187,72.1875 69.84375,72.1875 C73.7207813,72.1875 76.875,75.3417187 76.875,79.21875 C76.875,83.0957813 73.7207813,86.25 69.84375,86.25 Z" id="Path" fill="#08D300"></path>
                    <g id="Group" stroke-width="1" fill="none" transform="translate(10.250000, 7.500000)">
                        <rect id="Rectangle-Copy" fill="#FF8900" x="0.75" y="0.5" width="57" height="14"></rect>
                    </g>
                </g>
            </g>
            <path d="M277.611,41 C277.611,53.532 269.924,64.264 259.011,68.752 C248.098,64.264 240.411,53.532 240.411,41 C240.411,28.468 248.098,17.736 259.011,13.248 C269.924,17.736 277.611,28.468 277.611,41 Z" id="Path" fill="#C5D3DD" mask="url(#mask-2)"></path>
            <path d="M265.611,41 C265.611,50.941 257.552,59 247.611,59 C237.67,59 229.611,50.941 229.611,41 C229.611,31.059 237.67,23 247.611,23 C257.552,23 265.611,31.059 265.611,41 Z" id="Path" fill="#8D9CA8" mask="url(#mask-2)"></path>
            <path d="M253.011,41.6 C253.011,44.914 250.325,47.6 247.011,47.6 C243.697,47.6 241.011,44.914 241.011,41.6 C241.011,38.286 243.697,35.6 247.011,35.6 C250.325,35.6 253.011,38.286 253.011,41.6 Z" id="Path" fill="#8BEBDB" mask="url(#mask-2)"></path>
            <path d="M85,93 L85,339.118 C85,344.641 89.477,349.118 95,349.118 L75,349.118 C69.477,349.118 65,344.641 65,339.118 L65,93 C65,87.477 69.477,83 75,83 L95,83 C89.477,83 85,87.477 85,93 Z" id="Shape" fill="#9FACBA" fill-rule="nonzero" mask="url(#mask-2)"></path>
            <path d="M165,495.264 L165,456 C165,453.239 167.239,451 170,451 L458.967,451 C412.9,495.565 350.158,523 281,523 C239.243,523 199.824,512.997 165,495.264 Z" id="Path" fill="#D9E7EC" mask="url(#mask-2)"></path>
            <path d="M325,496 L325,506 C325,508.761 322.761,511 320,511 L310,511 C307.239,511 305,508.761 305,506 L305,496 C305,493.239 307.239,491 310,491 L320,491 C322.761,491 325,493.239 325,496 Z M290,461 L280,461 C277.239,461 275,463.239 275,466 L275,476 C275,478.761 277.239,481 280,481 L290,481 C292.761,481 295,478.761 295,476 L295,466 C295,463.239 292.761,461 290,461 Z M260,461 L250,461 C247.239,461 245,463.239 245,466 L245,476 C245,478.761 247.239,481 250,481 L260,481 C262.761,481 265,478.761 265,476 L265,466 C265,463.239 262.761,461 260,461 Z M350,461 L340,461 C337.239,461 335,463.239 335,466 L335,476 C335,478.761 337.239,481 340,481 L350,481 C352.761,481 355,478.761 355,476 L355,466 C355,463.239 352.761,461 350,461 Z M320,461 L310,461 C307.239,461 305,463.239 305,466 L305,476 C305,478.761 307.239,481 310,481 L320,481 C322.761,481 325,478.761 325,476 L325,466 C325,463.239 322.761,461 320,461 Z M350,491 L340,491 C337.239,491 335,493.239 335,496 L335,506 C335,508.761 337.239,511 340,511 L350,511 C352.761,511 355,508.761 355,506 L355,496 C355,493.239 352.761,491 350,491 Z M215,466 C215,463.239 212.761,461 210,461 L180,461 C177.239,461 175,463.239 175,466 L175,476 C175,478.761 177.239,481 180,481 L210,481 C212.761,481 215,478.761 215,476 L215,466 Z M290,491 L280,491 C277.239,491 275,493.239 275,496 L275,506 C275,508.761 277.239,511 280,511 L290,511 C292.761,511 295,508.761 295,506 L295,496 C295,493.239 292.761,491 290,491 Z M365,496 L365,506 C365,506.962 365.285,507.853 365.756,508.616 C379.402,503.829 392.518,497.922 404.996,491 L370,491 C367.239,491 365,493.239 365,496 Z M260,491 L250,491 C247.239,491 245,493.239 245,496 L245,506 C245,508.761 247.239,511 250,511 L260,511 C262.761,511 265,508.761 265,506 L265,496 C265,493.239 262.761,491 260,491 Z M370,461 C367.239,461 365,463.239 365,466 L365,476 C365,478.761 367.239,481 370,481 L421.518,481 C430.791,474.899 439.649,468.221 448.029,461 L370,461 Z M190,491 L180,491 C177.239,491 175,493.239 175,496 L175,500.084 C181.384,502.992 187.912,505.639 194.565,508.024 C194.841,507.404 195,506.722 195,506 L195,496 C195,493.239 192.761,491 190,491 Z M230,491 L220,491 C217.239,491 215,493.239 215,496 L215,506 C215,508.761 217.239,511 220,511 L230,511 C232.761,511 235,508.761 235,506 L235,496 C235,493.239 232.761,491 230,491 Z" id="Shape" fill="#C5D3DD" fill-rule="nonzero" mask="url(#mask-2)"></path>
        </g>
    </g>
</svg>